<svg width="95" height="79" viewBox="0 0 95 79" xmlns="http://www.w3.org/2000/svg"><title>shi.io</title><g fill="none" fill-rule="evenodd"><path d="M74.712 62.717l-1.934.353h-.615v-.587l1.902-5.12c0-1.715-.634-2.573-1.902-2.573h-1.287c-4.475 4.252-6.387 7.87-5.734 10.853l.98 1.567 4.754 1.622c1.436 0 2.686-.373 3.75-1.12 1.306 1.784 3.124 2.856 5.453 3.218h1.062c5.37-.765 8.438-1.744 9.203-2.937l2.405-.364c.858-1.157.867-1.96.028-2.406l-1.286-.895-.532-5.624-1.622-2.797-2.825-3.246c-2.48-2.05-4.802-1.902-6.965.448 4.55 5.09 6.825 8.41 6.825 9.958-.728 2.107-2.126 3.16-4.196 3.16h-1.035l1.035-4.727V57.84c-.15-.728-1.026-1.427-2.63-2.1-2.528 1.11-4.14 3.435-4.835 6.977zm-34.813.2c-.445.05-.87.083-1.276.097l-1.762-.56 1.203-10.49v-1.76l-1.79-1.763h-.56c-2.312 0-6.004 3.702-11.077 11.105 10.5-33.268 15.75-52.13 15.75-56.587V2.37c0-.577-.775-1.156-2.323-1.734-2.443 0-4.98 4.858-7.608 14.574 0 1.175.39 1.762 1.174 1.762h.59l.586-.587-14.52 47.012-.027-.02c-1.698 1.567-3.73 2.872-6.1 3.917-4.475-2.033-6.712-4.392-6.712-7.077 0-2.574 1.575-4.672 4.727-6.294h.53v.504l-1.062 3.16.532 1.567c2.256 0 3.832-2.275 4.727-6.825v-.505c-.15-.727-1.026-1.426-2.63-2.098h-.53c-5.577 0-9.418 3.842-11.525 11.525 0 3.804 2.228 6.694 6.685 8.67-2.443 2.052-3.664 3.805-3.664 5.26v.503C4.152 77.4 5.54 78.26 7.406 78.26c4.065 0 6.526-1.903 7.384-5.708 0-.68.482-1.517 1.447-2.514l-.354 1.144c.187 1.566.765 2.35 1.734 2.35 2.947 0 7.618-5.26 14.014-15.777h.59v.616l-.59 2.322v2.322c.598 3.506 2.146 5.26 4.645 5.26 1.245 0 2.745-.372 4.5-1.114l.03.05 4.757 1.622c2.87 0 4.997-1.492 6.377-4.475l-1.26-1.874-3.216.587h-.616v-.587l1.902-5.12c0-1.715-.634-2.573-1.902-2.573h-1.286c-3.19 3.03-5.078 5.74-5.663 8.126zm-31.403 9.97c-.56.84-.868 1.418-.924 1.735-.056.317.192.322.742.014.55-.307.61-.89.182-1.748zm41.708-36.28c1.268 1.55 1.902 3.04 1.902 4.477 0 .97-1.063 1.604-3.19 1.902l-2.516-1.902c0-2.984 1.27-4.476 3.805-4.476zm9.26 23.554l1.9 1.427v1.903c0 1.678-1.258 3.412-3.775 5.202h-2.378c-.95-.317-1.427-1.268-1.427-2.853v-.476c0-2.76 1.893-4.495 5.68-5.203zM75.52 36.61c1.268 1.548 1.902 3.04 1.902 4.476 0 .97-1.063 1.604-3.19 1.902l-2.517-1.902c0-2.984 1.268-4.476 3.805-4.476z" fill="#DF2E1C"/></g></svg>